<?xml version="1.0" encoding="utf-8"?>
<!-- Generator: Adobe Illustrator 27.6.1, SVG Export Plug-In . SVG Version: 6.00 Build 0)  -->
<svg version="1.1" id="Layer_1" xmlns="http://www.w3.org/2000/svg" xmlns:xlink="http://www.w3.org/1999/xlink" x="0px" y="0px"
	 viewBox="0 0 978 85.9" style="enable-background:new 0 0 978 85.9;" xml:space="preserve">
<style type="text/css">
	.st0{fill:#FFFFFF;}
	.st1{fill:#FFCC00;}
	.st2{fill:#FFFFFF;}
</style><g>
	<path class="st0" d="M79.1,41.7c1,0.3,2,0.5,3,0.8C88.5,44.3,92.3,48.6,93,55c0.6,5.4,0.5,10.8,0.2,16.2
		c-0.4,6.5-4.5,10.4-10.4,12.5c-4.1,1.5-8.4,1.9-12.8,2c-20.2,0.1-40.4,0.2-60.6,0.2c-3.1,0-6.2,0-9.3,0C0,57.3,0,28.8,0,0.1
		C0.4,0.1,0.8,0,1.3,0c23.5,0,47,0,70.5,0.1c3.5,0,7,0.4,10.4,1.2c5.9,1.3,9.7,5.4,10.1,11.5c0.4,5.5,0.4,11,0.2,16.5
		c-0.2,5.2-3.3,8.7-8.1,10.8C82.7,40.7,80.9,41.1,79.1,41.7z M19.9,70.4c1.6,0,3.2,0,4.7,0c12.9,0,25.7,0,38.6,0
		c2,0,4.1-0.2,6.1-0.4c3.1-0.4,4.8-2,5.1-5.1c0.3-3.5,0.4-7,0.1-10.5c-0.3-3.6-1.8-4.9-5.5-5.5c-1.5-0.2-3.1-0.4-4.6-0.4
		c-14.4,0-28.7,0-43.1,0c-0.4,0-0.9,0-1.3,0C19.9,55.9,19.9,63.1,19.9,70.4z M20,34.5c0.3,0,0.5,0,0.7,0c15.2,0,30.5,0,45.7,0
		c1.3,0,2.7-0.2,3.9-0.5c2-0.5,3.5-1.7,3.6-3.9c0.1-3.8,0.2-7.6,0-11.3c-0.1-2.2-1.6-3.6-3.8-4c-1.6-0.3-3.2-0.5-4.8-0.5
		c-13.6,0-27.1,0-40.7,0c-1.5,0-3.1,0-4.6,0C20,21,20,27.6,20,34.5z"/>
</g>
	
</svg>