<svg 
 xmlns="http://www.w3.org/2000/svg"
 xmlns:xlink="http://www.w3.org/1999/xlink"
 width="1080px" height="1080px">
<path fill-rule="evenodd"  fill="rgb(255, 204, 0)"
 d="M540.000,0.000 C838.234,0.000 1079.1000,241.766 1079.1000,540.000 C1079.1000,838.234 838.234,1079.1000 540.000,1079.1000 C241.766,1079.1000 0.000,838.234 0.000,540.000 C0.000,241.766 241.766,0.000 540.000,0.000 Z"/>
<path fill-rule="evenodd"  fill="rgb(22, 22, 22)"
 d="M851.464,687.615 L568.642,687.615 L548.642,687.615 L548.542,656.832 L548.574,656.799 L548.542,646.832 L736.085,456.029 L588.385,456.029 L568.385,456.029 L568.385,446.029 L568.385,405.603 L568.385,395.603 L588.385,395.603 L851.464,395.603 L871.464,395.603 L871.464,405.603 L871.464,423.618 L871.464,433.618 L681.318,624.521 L851.464,624.521 L871.464,624.521 L871.464,634.521 L871.464,677.615 L871.464,687.615 L851.464,687.615 ZM452.262,687.615 L432.262,687.615 L228.147,687.615 L208.147,687.615 L208.147,677.615 L208.147,405.603 L208.147,395.603 L228.147,395.603 L449.871,395.603 L469.871,395.603 C492.103,395.603 508.199,399.918 518.163,408.543 C528.122,417.173 533.104,431.088 533.104,450.298 L533.104,460.298 L533.104,484.716 L533.104,494.716 C533.104,508.056 529.010,518.774 520.831,526.866 C516.408,531.241 510.832,534.737 504.123,537.370 C511.107,540.344 517.037,544.399 521.898,549.549 C530.790,558.979 535.238,571.252 535.238,586.368 L535.238,596.368 L535.238,622.387 L535.238,632.387 C535.238,651.242 528.389,665.162 514.694,674.141 C500.995,683.125 480.185,687.615 452.262,687.615 ZM452.539,471.771 C452.539,464.659 450.359,459.498 446.003,456.296 C441.642,453.094 433.771,451.494 422.390,451.494 L292.714,451.494 L292.714,508.728 L422.390,508.728 C433.771,508.728 441.642,507.219 446.003,504.193 C450.359,501.170 452.539,495.922 452.539,488.451 L452.539,471.771 ZM454.140,590.232 C454.140,580.985 451.960,574.490 447.603,570.755 C443.243,567.020 434.839,565.152 422.390,565.152 L292.714,565.152 L292.714,626.922 L422.390,626.922 C434.484,626.922 442.801,625.013 447.337,621.186 C451.872,617.363 454.140,610.826 454.140,601.576 L454.140,590.232 Z"/>
</svg>