<?xml version="1.0" standalone="no"?>
<!DOCTYPE svg PUBLIC "-//W3C//DTD SVG 20010904//EN"
 "http://www.w3.org/TR/2001/REC-SVG-20010904/DTD/svg10.dtd">
<svg version="1.0" xmlns="http://www.w3.org/2000/svg"
 width="700.000000pt" height="700.000000pt" viewBox="0 0 700.000000 700.000000"
 preserveAspectRatio="xMidYMid meet">
<metadata>
Created by potrace 1.14, written by Peter Selinger 2001-2017
</metadata>
<g transform="translate(0.000000,700.000000) scale(0.100000,-0.100000)"
fill="#000000" stroke="none">
<path d="M3298 6994 c-2 -1 -34 -5 -73 -8 -156 -14 -272 -29 -315 -41 -8 -3
-33 -7 -55 -10 -22 -4 -48 -8 -57 -11 -10 -3 -30 -7 -45 -10 -16 -3 -57 -12
-93 -20 -36 -9 -76 -18 -90 -20 -45 -9 -301 -96 -365 -125 -33 -14 -79 -32
-91 -34 -24 -6 -192 -91 -308 -158 -66 -38 -136 -78 -154 -88 -42 -25 -86 -52
-92 -59 -3 -3 -17 -11 -32 -19 -15 -8 -37 -22 -47 -33 -11 -10 -24 -18 -30
-18 -5 0 -11 -3 -13 -7 -1 -5 -39 -35 -82 -68 -234 -176 -470 -417 -654 -666
-131 -177 -222 -325 -345 -559 -43 -82 -178 -422 -203 -510 -32 -114 -53 -196
-58 -225 -3 -16 -8 -43 -11 -60 -3 -16 -12 -61 -20 -100 -35 -172 -32 -154
-52 -390 -16 -189 -3 -600 22 -735 2 -8 10 -53 19 -100 34 -185 43 -231 62
-303 9 -34 17 -69 19 -77 3 -16 52 -166 62 -190 4 -8 7 -17 8 -20 1 -3 5 -14
10 -25 4 -11 19 -49 32 -85 84 -218 217 -472 356 -680 179 -269 359 -471 635
-712 43 -38 280 -218 287 -218 3 0 27 -15 53 -32 67 -46 85 -57 102 -65 8 -4
17 -9 20 -12 19 -22 323 -174 455 -228 160 -66 350 -128 520 -170 33 -8 69
-17 80 -20 51 -12 161 -33 203 -37 74 -8 135 -17 162 -22 142 -28 644 -23 835
10 119 20 152 25 200 32 22 3 46 7 54 10 8 3 30 7 50 10 20 3 63 12 96 21 33
8 67 16 75 18 43 9 334 111 385 135 11 5 49 21 85 36 110 45 411 201 418 217
2 4 8 7 13 7 13 0 278 180 341 232 138 112 202 171 313 283 133 134 176 183
281 320 187 246 353 535 476 830 50 120 130 366 144 439 2 11 15 73 30 136 32
144 35 158 39 195 1 17 5 46 8 65 4 19 9 62 13 95 3 33 8 78 11 100 8 68 10
480 1 552 -4 37 -10 95 -13 128 -3 33 -8 70 -11 83 -2 12 -7 43 -10 69 -3 26
-17 94 -30 152 -14 58 -27 117 -30 131 -10 46 -73 264 -97 335 -62 180 -206
485 -307 650 -48 78 -168 257 -197 293 -10 13 -38 49 -62 80 -101 128 -265
303 -397 423 -116 105 -343 276 -456 344 -198 119 -328 187 -483 254 -55 23
-109 47 -120 52 -29 13 -287 97 -316 102 -13 3 -49 12 -80 21 -31 9 -66 19
-78 21 -11 3 -29 7 -38 10 -44 11 -152 33 -191 39 -24 3 -46 8 -50 10 -4 2
-39 7 -77 10 -39 4 -92 9 -120 12 -50 5 -522 13 -527 8z m-153 -2568 c156 -19
227 -60 273 -158 30 -64 38 -142 37 -358 0 -181 -2 -199 -23 -245 -22 -48
-104 -135 -129 -135 -28 0 -20 -20 20 -46 61 -40 91 -75 120 -144 l27 -61 -3
-237 c-3 -163 -8 -248 -17 -272 -31 -84 -103 -147 -212 -186 -108 -38 -205
-42 -1063 -43 l-820 -2 0 943 0 943 620 5 c747 6 1103 5 1170 -4z m2498 5 c4
-1 7 -56 7 -123 l0 -123 -168 -167 c-92 -91 -369 -369 -616 -617 l-449 -451
616 0 617 0 0 -205 0 -205 -1045 0 -1045 0 -1 60 c0 33 0 80 0 105 0 25 0 58
0 74 1 24 45 73 254 284 738 748 942 958 942 969 0 9 -122 12 -528 12 -387 1
-530 4 -535 13 -5 8 -7 274 -3 363 1 13 115 15 973 13 535 -1 976 -2 981 -2z"/>
<path d="M1900 3885 c0 -185 0 -185 23 -186 12 0 218 -1 457 -1 381 0 440 2
475 16 65 27 80 57 80 156 -1 111 -5 137 -30 159 -42 38 -74 40 -545 41 l-460
0 0 -185z"/>
<path d="M1904 3331 c-2 -2 -4 -93 -4 -201 l0 -196 468 0 c448 1 468 2 501 21
65 38 76 64 75 178 0 122 -12 154 -69 182 -38 18 -64 19 -503 20 -255 0 -465
-2 -468 -4z"/>
</g>
</svg>
